<?xml version="1.0" encoding="utf-8"?>
<!-- Generator: Adobe Illustrator 16.0.4, SVG Export Plug-In . SVG Version: 6.00 Build 0)  -->
<!DOCTYPE svg PUBLIC "-//W3C//DTD SVG 1.1//EN" "http://www.w3.org/Graphics/SVG/1.1/DTD/svg11.dtd">
<svg version="1.1" id="Layer_1" xmlns="http://www.w3.org/2000/svg" xmlns:xlink="http://www.w3.org/1999/xlink" x="0px" y="0px"
	 width="612px" height="792px" viewBox="0 0 612 792" enable-background="new 0 0 612 792" xml:space="preserve">
<g>
	<path fill-rule="evenodd" clip-rule="evenodd" d="M738.048,289.501c-0.627,0-1.25-0.014-1.871,0.002
		c-11.85,0.301-23.659-0.097-35.418-1.769c-6.979-0.992-13.902-2.161-20.607-4.396c-7.656-2.553-14.482-6.433-19.641-12.774
		c-4.758-5.849-6.37-12.672-5.795-19.747c0.369,2.278,0.654,4.917,1.242,7.486c1.292,5.649,4.103,10.327,9.355,13.148
		c1.41,0.757,3.041,1.137,4.605,1.555c0.626,0.167,0.907,0.336,1.09,0.996c0.741,2.673,2.456,4.627,5.033,5.56
		c8.621,3.119,17.562,4.755,26.666,5.708c9.046,0.946,18.104,1.293,27.188,1.093c3.197-0.071,6.395-0.24,9.584-0.457
		c0.49-0.033,1.072-0.471,1.396-0.89c3.596-4.634,7.886-8.465,13.394-10.563c2.531-0.964,5.351-1.236,8.065-1.639
		c6.072-0.9,11.797,0.259,17.066,3.384c1.557,0.922,2.869,2.248,4.367,3.28c0.439,0.304,1.183,0.434,1.708,0.31
		c7.935-1.874,15.892-3.669,23.774-5.75c13.541-3.574,27.18-6.654,41.043-8.673c11.771-1.714,23.605-2.676,35.506-2.181
		c11.195,0.465,22.21,2.083,32.743,6.128c6.467,2.484,12.474,5.785,17.677,10.425c0.596,0.531,1.246,1.053,1.676,1.707
		c0.74,1.126,1.646,1.219,2.881,1.019c7.824-1.264,15.702-1.905,23.629-2.114c9.578-0.252,19.097,0.342,28.585,1.564
		c0.818,0.105,1.301-0.127,1.861-0.708c3.651-3.784,8.012-6.583,12.652-8.992c9.526-4.945,19.807-7.147,30.354-8.354
		c10.294-1.178,20.595-0.931,30.895-0.029c18.584,1.626,36.73,5.524,54.739,10.259c9.156,2.408,18.431,4.367,27.646,6.552
		c1.06,0.251,1.68,0,2.374-0.929c0.817-1.092,1.911-2.079,3.081-2.787c3.618-2.189,7.469-3.993,11.744-4.23
		c8.306-0.461,16.268,0.597,22.67,6.649c2.023,1.912,3.803,4.081,5.737,6.09c0.345,0.358,0.893,0.706,1.363,0.729
		c11.164,0.544,22.296,0.179,33.408-1.08c8.174-0.926,16.183-2.531,23.991-5.143c3.117-1.043,5.183-3.025,6.15-6.18
		c0.093-0.301,0.541-0.576,0.884-0.704c1.701-0.64,3.555-0.992,5.113-1.873c5.674-3.208,8.152-8.583,9.335-14.671
		c0.439-2.261,0.517-4.593,0.699-6.325c1.501,8.714-2.741,18.96-10.066,24.909c-7.656,6.219-16.575,9.19-25.994,11.029
		c-9.033,1.764-18.159,2.901-27.368,3.209c-4.635,0.155-9.274,0.16-13.911,0.235c-0.353,0.006-0.704,0.03-1.182,0.05
		c0.125,0.438,0.201,0.777,0.318,1.104c1.87,5.229,2.273,10.612,1.556,16.079c-0.453,3.457-2.008,6.459-4.153,9.18
		c-3.331,4.223-7.459,7.406-12.291,9.759c-8.623,4.2-17.719,6.566-27.244,7.537c-17.617,1.795-34.851-0.212-51.892-4.744
		c-17.354-4.615-34.201-10.646-50.657-17.788c-8.068-3.501-16.031-7.246-24.08-10.795c-10.909-4.811-22.409-7.527-34.129-9.43
		c-10.283-1.67-20.617-2.662-31.047-2.338c-14.226,0.442-28.348,1.758-42.042,5.881c-11.202,3.373-21.916,8.031-32.538,12.905
		c-17.507,8.032-35.434,14.946-54,20.149c-8.826,2.473-17.704,4.665-26.824,5.755c-13.344,1.596-26.658,1.653-39.866-1.088
		c-8.483-1.76-16.598-4.651-23.668-9.778c-4.45-3.227-8.097-7.298-9.753-12.739c-1.285-4.225-1.035-8.558-0.422-12.846
		C736.76,294.147,737.47,291.925,738.048,289.501z M938.072,282.83c0.077-0.132,0.153-0.264,0.23-0.395
		c-0.216-0.109-0.461-0.182-0.643-0.332c-4.345-3.599-9.187-6.373-14.334-8.64c-9.796-4.314-20.177-6.077-30.743-6.906
		c-8.99-0.706-17.983-0.357-26.952,0.489c-10.557,0.996-21.045,2.542-31.372,4.923c-11.059,2.549-22.025,5.489-33.041,8.228
		c-10.947,2.722-22.005,4.94-33.186,6.408c-8.156,1.07-16.375,1.67-24.561,2.533c-0.535,0.056-1.282,0.443-1.492,0.885
		c-2.393,5.034-3.117,10.42-1.988,15.793c1.164,5.535,4.184,10.16,8.818,13.598c3.178,2.356,6.68,4.08,10.393,5.4
		c8.715,3.1,17.784,4.253,26.949,4.772c12,0.68,23.652-1.145,35.076-4.85c15.091-4.894,29.616-11.196,44.169-17.43
		c15.407-6.599,30.875-13.02,46.994-17.724c0.271-0.08,0.524-0.221,1.09-0.463c-1.188-0.468-2.064-0.832-2.954-1.159
		c-5.075-1.873-10.4-1.952-15.711-2.298c-11.415-0.743-22.274,1.383-32.731,5.885c-10.503,4.521-20.991,9.077-31.536,13.501
		c-7.741,3.248-15.492,6.515-23.65,8.61c-9.553,2.454-19.227,3.175-29.007,1.57c-4.556-0.748-8.631-2.605-12.189-5.557
		c-1.372-1.139-2.597-2.405-3.132-4.186c0.383,0.168,0.672,0.42,0.965,0.667c3.266,2.754,6.783,5.177,10.874,6.438
		c9.978,3.073,19.653,2.507,29.044-2.47c14.961-7.93,30.346-14.924,46.378-20.455c8.845-3.052,17.835-5.335,27.173-6.195
		c7.747-0.713,15.491-0.79,23.233-0.067c5.509,0.514,10.942,1.471,16.087,3.608c1.114,0.463,2.077,0.473,3.212,0.161
		c3.622-0.996,7.263-1.932,10.919-2.797C932.974,283.78,935.532,283.34,938.072,282.83z M1023.767,289.235
		c0.737,0.243,1.109,0.367,1.482,0.49c4.709,1.548,9.505,2.876,14.111,4.687c13.468,5.295,26.898,10.69,40.271,16.222
		c12.269,5.075,24.481,10.27,37.152,14.299c8.545,2.718,17.243,4.634,26.228,4.675c5.506,0.024,11.03-0.285,16.518-0.77
		c7.072-0.625,13.985-2.155,20.605-4.803c4.382-1.752,8.539-3.971,11.668-7.58c6.777-7.817,7.557-16.598,3.798-26.006
		c-0.312-0.782-0.809-1.059-1.63-1.113c-5.622-0.374-11.249-0.706-16.859-1.213c-10.078-0.912-20.048-2.569-29.991-4.431
		c-10.665-1.997-21.067-5.033-31.56-7.723c-18.771-4.812-37.74-8.486-57.151-9.516c-11.475-0.609-22.866-0.075-34.126,2.271
		c-9.976,2.078-19.291,5.759-27.523,11.902c-0.555,0.414-1.062,0.89-1.752,1.472c0.507,0.128,0.762,0.214,1.023,0.255
		c7.635,1.187,15.16,2.862,22.586,5.001c0.516,0.148,1.197,0.074,1.698-0.14c3.742-1.598,7.646-2.579,11.654-3.184
		c8.541-1.289,17.115-1.379,25.717-0.762c7.848,0.563,15.556,1.876,23.07,4.208c17.434,5.41,34.068,12.741,50.239,21.142
		c7.159,3.72,14.372,6.553,22.758,5.753c7.095-0.677,13.389-2.868,18.926-7.304c0.697-0.559,1.377-1.14,2.064-1.71
		c0.097,0.084,0.193,0.168,0.29,0.252c-0.746,1.002-1.38,2.119-2.259,2.986c-2.901,2.861-6.358,4.842-10.29,5.911
		c-7.785,2.118-15.68,1.817-23.575,0.84c-7.557-0.935-14.754-3.262-21.753-6.149c-10.163-4.192-20.236-8.6-30.381-12.835
		c-6.05-2.525-12.103-5.062-18.261-7.303c-11.733-4.269-23.852-4.075-36.02-2.568
		C1029.562,286.854,1026.752,287.78,1023.767,289.235z M1153.489,280.653c0.085,0.151,0.17,0.302,0.255,0.453
		c12.819,2.32,25.715,4.009,38.946,4.806c-0.273-0.459-0.365-0.733-0.551-0.909c-1.824-1.724-3.537-3.599-5.526-5.109
		c-4.234-3.215-9.236-4.46-14.431-4.948c-5.156-0.484-10.143,0.215-14.709,2.807
		C1156.054,278.559,1154.812,279.677,1153.489,280.653z M783.036,280.292c-0.2-0.304-0.267-0.516-0.408-0.604
		c-1.658-1.029-3.23-2.266-5.008-3.016c-8.918-3.764-23.768-2.146-31.986,7.782c-0.211,0.254-0.363,0.557-0.713,1.1
		C757.893,284.535,770.437,282.749,783.036,280.292z"/>
</g>
</svg>
